<svg xmlns:xlink="http://www.w3.org/1999/xlink" xmlns="http://www.w3.org/2000/svg" viewBox="0 0 607 607" width="200" height="200" preserveAspectRatio="xMidYMid meet" style="width: 100%; height: 100%; transform: translate3d(0px, 0px, 0px);"><defs><clipPath id="__lottie_element_28"><rect width="607" height="607" x="0" y="0"></rect></clipPath></defs><g clip-path="url(#__lottie_element_28)"><g transform="matrix(-1,0,0,-1,303.50799560546875,365.2976379394531)" opacity="1" style="display: block;"><g opacity="1" transform="matrix(1,0,0,1,0,0)"><path stroke-linecap="butt" stroke-linejoin="miter" fill-opacity="0" stroke-miterlimit="10" stroke="#FFFFFF" stroke-opacity="1" stroke-width="20px" d=" M-210.9709930419922,120.15899658203125 C-210.9709930419922,120.15899658203125 -0.00800000037997961,-120.33300018310547 -0.00800000037997961,-120.33300018310547 C-0.00800000037997961,-120.33300018310547 210.9709930419922,120.33300018310547 210.9709930419922,120.33300018310547"></path></g></g><g style="display: none;" transform="matrix(-1,0,0,-1,426,323.91998291015625)" opacity="1"><g opacity="1" transform="matrix(1,0,0,1,0,0)"><path stroke-linecap="butt" stroke-linejoin="miter" fill-opacity="0" stroke-miterlimit="10" stroke="#FFFFFF" stroke-opacity="1" stroke-width="20px" d=" M105.4229965209961,244.41400146484375 C110.05500030517578,244.73300170898438 114.72200012207031,244.92300415039062 119.4209976196289,244.9810028076172"></path></g></g><g style="display: none;" transform="matrix(-1,0,0,-1,181,323.91998291015625)" opacity="1"><g opacity="1" transform="matrix(1,0,0,1,0,0)"><path stroke-linecap="butt" stroke-linejoin="miter" fill-opacity="0" stroke-miterlimit="10" stroke="#FFFFFF" stroke-opacity="1" stroke-width="20px" d=" M-105.4229965209961,244.41400146484375 C-110.05500030517578,244.73300170898438 -114.72200012207031,244.92300415039062 -119.4209976196289,244.9810028076172"></path></g></g><g style="display: none;" transform="matrix(-0.6474335193634033,-0.9598596692085266,0.9598596692085266,-0.6474335193634033,219.33364868164062,163.1382598876953)" opacity="1"><g opacity="1" transform="matrix(1,0,0,1,0,0)"><path stroke-linecap="butt" stroke-linejoin="miter" fill-opacity="0" stroke-miterlimit="10" stroke="#FFFFFF" stroke-opacity="1" stroke-width="5px" d=" M127.52300262451172,-36.0359992980957 C128.11900329589844,-31.739999771118164 128.60899353027344,-27.40999984741211 128.99200439453125,-23.048999786376953"></path></g></g><g style="display: none;" transform="matrix(0.9484142065048218,0.6640867590904236,-0.6640867590904236,0.9484142065048218,422.7938537597656,382.2122802734375)" opacity="1"><g opacity="1" transform="matrix(1,0,0,1,0,0)"><path stroke-linecap="butt" stroke-linejoin="miter" fill-opacity="0" stroke-miterlimit="10" stroke="#FFFFFF" stroke-opacity="1" stroke-width="5px" d=" M-93.96399688720703,-257.52301025390625 C-98.26000213623047,-258.1189880371094 -102.58999633789062,-258.6090087890625 -106.95099639892578,-258.99200439453125"></path></g></g><g style="display: none;" transform="matrix(-1,0,0,-1,303.50799560546875,302.66314697265625)" opacity="1"><g opacity="1" transform="matrix(1,0,0,1,0,0)"><path stroke-linecap="butt" stroke-linejoin="miter" fill-opacity="0" stroke-miterlimit="10" stroke="#FFFFFF" stroke-opacity="1" stroke-width="20px" d=" M-205.61399841308594,114.0530014038086 C-172.7689971923828,76.61000061035156 -0.00800000037997961,-120.33300018310547 -0.00800000037997961,-120.33300018310547 C-0.00800000037997961,-120.33300018310547 172.77499389648438,76.76200103759766 205.61599731445312,114.2249984741211"></path></g></g></g></svg>