<?xml version="1.0" encoding="UTF-8"?>
<!DOCTYPE svg PUBLIC "-//W3C//DTD SVG 1.1//EN" "http://www.w3.org/Graphics/SVG/1.1/DTD/svg11.dtd">
<svg xmlns="http://www.w3.org/2000/svg" version="1.1" width="50px" height="50px" style="shape-rendering:geometricPrecision; text-rendering:geometricPrecision; image-rendering:optimizeQuality; fill-rule:evenodd; clip-rule:evenodd" xmlns:xlink="http://www.w3.org/1999/xlink">
<g><path style="opacity:0.997" fill="#5edd60" d="M 240.5,7.5 C 340.583,5.44565 417.083,46.4457 470,130.5C 507.329,198.452 513.329,269.118 488,342.5C 452.591,428.904 389.091,481.404 297.5,500C 198.57,513.093 118.07,480.926 56,403.5C 5.62676,330.866 -5.37324,252.533 23,168.5C 58.4093,82.0961 121.909,29.5961 213.5,11C 222.638,9.73349 231.638,8.56682 240.5,7.5 Z"/></g>
<g><path style="opacity:1" fill="#fefefe" d="M 326.5,144.5 C 331.182,144.338 335.515,145.505 339.5,148C 347.753,153.376 355.92,158.876 364,164.5C 367.454,170.345 367.12,176.012 363,181.5C 324.333,240.167 285.667,298.833 247,357.5C 232.045,369.934 217.545,369.434 203.5,356C 185.305,337.471 166.805,319.305 148,301.5C 143.888,296.05 143.554,290.383 147,284.5C 154.9,275.931 163.4,268.097 172.5,261C 177.072,260.113 181.405,260.78 185.5,263C 197.652,274.318 209.652,285.818 221.5,297.5C 254.376,247.581 287.376,197.748 320.5,148C 322.432,146.541 324.432,145.375 326.5,144.5 Z"/></g>
</svg>
